<?xml version="1.0" standalone="no"?>
<!DOCTYPE svg PUBLIC "-//W3C//DTD SVG 20010904//EN"
 "http://www.w3.org/TR/2001/REC-SVG-20010904/DTD/svg10.dtd">
<svg version="1.0" xmlns="http://www.w3.org/2000/svg"
 width="96.000000pt" height="96.000000pt" viewBox="0 0 96.000000 96.000000"
 preserveAspectRatio="xMidYMid meet">

<g transform="translate(0.000000,96.000000) scale(0.100000,-0.100000)"
fill="#000000" stroke="none">
<path d="M115 951 c-92 -24 -110 -58 -110 -211 0 -188 27 -215 215 -215 188 0
215 27 215 215 0 181 -27 211 -195 216 -52 2 -108 0 -125 -5z m227 -89 c18
-18 18 -226 0 -244 -18 -18 -226 -18 -244 0 -15 15 -24 153 -14 208 5 23 15
38 29 44 33 14 213 8 229 -8z"/>
<path d="M712 908 c-7 -7 -12 -38 -12 -70 l0 -57 -61 -3 c-46 -2 -65 -8 -73
-20 -21 -34 4 -53 72 -56 l61 -3 3 -61 c2 -45 8 -64 21 -72 33 -21 52 4 55 72
l3 61 61 3 c68 3 93 22 72 56 -8 12 -27 18 -73 20 l-61 3 0 57 c0 59 -11 82
-40 82 -9 0 -21 -5 -28 -12z"/>
<path d="M115 431 c-92 -24 -110 -58 -110 -211 0 -131 13 -167 68 -197 46 -26
248 -26 294 0 55 30 68 66 68 197 0 181 -27 211 -195 216 -52 2 -108 0 -125
-5z m227 -89 c18 -18 18 -226 0 -244 -18 -18 -226 -18 -244 0 -15 15 -24 153
-14 208 5 23 15 38 29 44 33 14 213 8 229 -8z"/>
<path d="M635 431 c-92 -24 -110 -58 -110 -211 0 -188 27 -215 215 -215 188 0
215 27 215 215 0 181 -27 211 -195 216 -52 2 -108 0 -125 -5z m227 -89 c18
-18 18 -226 0 -244 -18 -18 -226 -18 -244 0 -15 15 -24 153 -14 208 5 23 15
38 29 44 33 14 213 8 229 -8z"/>
</g>
</svg>
